<?xml version="1.0" encoding="UTF-8" standalone="no"?> <!-- Created with Vectornator for iOS (http://vectornator.io/) --><!DOCTYPE svg PUBLIC "-//W3C//DTD SVG 1.1//EN" "http://www.w3.org/Graphics/SVG/1.1/DTD/svg11.dtd">
<svg height="100%" style="fill-rule:evenodd;clip-rule:evenodd;stroke-linecap:round;stroke-linejoin:round;" xmlns:xlink="http://www.w3.org/1999/xlink" xmlns="http://www.w3.org/2000/svg" xml:space="preserve" width="100%" xmlns:vectornator="http://vectornator.io" version="1.1" viewBox="0 0 360 360">
<metadata>
<vectornator:setting key="DimensionsVisible" value="1"/>
<vectornator:setting key="PencilOnly" value="0"/>
<vectornator:setting key="SnapToPoints" value="0"/>
<vectornator:setting key="OutlineMode" value="0"/>
<vectornator:setting key="CMYKEnabledKey" value="0"/>
<vectornator:setting key="RulersVisible" value="1"/>
<vectornator:setting key="SnapToEdges" value="0"/>
<vectornator:setting key="GuidesVisible" value="1"/>
<vectornator:setting key="DisplayWhiteBackground" value="0"/>
<vectornator:setting key="doHistoryDisabled" value="0"/>
<vectornator:setting key="SnapToGuides" value="1"/>
<vectornator:setting key="TimeLapseWatermarkDisabled" value="0"/>
<vectornator:setting key="Units" value="Inches"/>
<vectornator:setting key="DynamicGuides" value="0"/>
<vectornator:setting key="IsolateActiveLayer" value="0"/>
<vectornator:setting key="SnapToGrid" value="0"/>
</metadata>
<defs/>
<g id="Layer 1" vectornator:layerName="Layer 1">
<path stroke="#000000" stroke-width="2" d="M195.013+182.834C191.829+178.179+178.768+178.115+153.071+178.522C128.803+179.107+95.7933+182.106+43.4208+185.411" fill="#000000" stroke-linecap="round" fill-opacity="0" opacity="1" stroke-linejoin="round"/>
<path stroke="#000000" stroke-width="2" d="M199.27+176.617C186.154+173.856+191.901+173.459+157.213+173.579C126.361+174.861+45.9866+179.987+13.604+179.223" fill="#000000" stroke-linecap="round" fill-opacity="0" opacity="1" stroke-linejoin="round"/>
<path stroke="#000000" stroke-width="2" d="M194.084+166.698C185.747+169.612+182.792+169.802+167.246+169.65C134.265+169.191+90.4076+169.925+67.2233+169.389" fill="#000000" stroke-linecap="round" fill-opacity="0" opacity="1" stroke-linejoin="round"/>
</g>
<g id="Layer 4" vectornator:layerName="Layer 4">
<path stroke="#000000" stroke-width="5" d="M214.808+182.691L343.987+181.86C343.987+181.86+349.126+174.723+341.464+167.116C307.164+162.73+299.354+155.203+282.849+155.595C261.287+155.708+254.139+163.093+213.479+166.251C207.643+173.678+214.808+182.691+214.808+182.691Z" fill="#000000" stroke-linecap="round" fill-opacity="0" opacity="1" stroke-linejoin="round"/>
</g>
<g id="Layer 2" vectornator:layerName="Layer 2">
<path stroke="#000000" stroke-width="1" d="M79.6865+238.065C81.4573+238.148+90.2838+238.21+91.9992+238.251C93.7147+238.292+95.4025+238.313+97.0627+238.313C110.676+238.313+114.217+236.797+121.854+233.766C129.491+230.734+126.616+227.21+125.654+220.597C123.839+214.014+108.636+208.834+93.2808+204.943C82.1116+202.36+61.4466+200.289+47.446+200.289C44.8452+200.289+42.8668+200.302+41.511+200.33C40.1552+200.358+38.8686+200.413+37.6512+200.495L79.6865+238.065ZM74.9182+243.894L61.8031+243.894L58.0677+243.894C56.0202+243.894+54.5814+243.646+53.7514+243.15C52.9213+242.653+52.7276+241.909+53.1703+240.917C53.613+239.842+54.5123+239.098+55.868+238.685C57.2238+238.272+59.5619+238.065+62.8822+238.065L64.3763+238.065L21.2863+200.819L19.9582+200.819C16.6379+200.819+14.4521+200.598+13.4006+200.158C12.3492+199.717+12.0449+198.945+12.4876+197.843C12.9303+196.823+13.7742+196.072+15.0193+195.59C16.2644+195.107+17.966+194.866+20.1242+194.866L23.6935+194.866L36.8087+194.866L55.1533+194.866C68.9325+194.866+98.548+198.163+108.945+202.359C116.13+204.383+129.331+208.746+134.711+217.07C138.156+223.844+139.442+224.26+138.672+229.632C138.153+233.26+135.108+235.529+129.574+237.9C124.538+240.049+118.838+241.613+112.474+242.591C106.11+243.57+95.8914+244.059+86.5392+244.059C85.4324+244.059+83.5786+244.031+80.9777+243.976C78.3768+243.921+76.357+243.894+74.9182+243.894Z" fill="#000000" stroke-linecap="round" opacity="1" stroke-linejoin="round"/>
<path stroke="#000000" stroke-width="1" d="M233.241+235.955L213.863+227.293L193.277+227.293C191.617+227.293+190.469+227.072+189.832+226.631C189.196+226.19+189.072+225.515+189.459+224.606C189.957+223.558+190.635+222.842+191.493+222.456C192.35+222.07+193.803+221.877+195.85+221.877L231.71+221.877C233.148+221.877+234.117+222.105+234.615+222.559C235.113+223.014+235.168+223.696+234.781+224.606C234.393+225.625+233.66+226.328+232.581+226.714C231.502+227.1+229.8+227.293+227.476+227.293L226.397+227.293L245.111+237.567L244.696+238.56C244.364+239.304+243.962+239.82+243.492+240.11C243.022+240.399+242.233+240.682+241.126+240.957C237.585+241.894+232.66+242.693+226.351+243.355C220.042+244.016+213.789+244.321+207.591+244.347C197.215+244.39+181.039+242.806+172.318+238.454C166.546+234.394+127.042+215.04+135.979+200.074C141.524+193.222+159.456+192.674+173.291+192.674C177.054+192.674+180.734+192.888+184.331+193.315C187.928+193.742+191.58+194.383+195.288+195.237C196.173+194.52+197.169+194.004+198.276+193.687C199.383+193.37+200.711+193.211+202.26+193.211C204.861+193.211+206.425+193.597+206.95+194.369C207.476+195.14+207.13+196.918+205.913+199.701L203.589+205.324C202.98+206.674+202.094+207.618+200.932+208.155C199.77+208.693+200.388+208.961+198.064+208.961C195.186+208.961+191.11+208.079+190.556+206.316C190.39+205.792+190.224+205.392+190.058+205.117C188.896+202.94+186.669+201.259+183.376+200.074C180.084+198.888+175.975+198.296+171.05+198.296C161.144+198.296+156.399+198.811+148.956+202.38C148.044+208.524+154.646+213.674+160.655+218.097C166.377+222.145+175.646+228.406+182.989+233.02C191.264+237.983+200.563+238.56+211.41+238.56C214.564+238.56+217.898+238.353+221.412+237.94C224.926+237.526+228.869+236.865+233.241+235.955Z" fill="#000000" stroke-linecap="round" opacity="1" stroke-linejoin="round"/>
<path stroke="#000000" stroke-width="1" d="M335.512+235.955L316.134+227.293L295.548+227.293C293.888+227.293+292.74+227.072+292.104+226.631C291.467+226.19+291.343+225.515+291.73+224.606C292.228+223.558+292.906+222.842+293.764+222.456C294.621+222.07+296.074+221.877+298.122+221.877L333.981+221.877C335.419+221.877+336.388+222.105+336.886+222.559C337.384+223.014+337.439+223.696+337.052+224.606C336.665+225.625+335.931+226.328+334.852+226.714C333.773+227.1+332.071+227.293+329.747+227.293L328.668+227.293L347.382+237.567L346.967+238.56C346.635+239.304+346.233+239.82+345.763+240.11C345.293+240.399+344.504+240.682+343.397+240.957C339.856+241.894+334.931+242.693+328.622+243.355C322.314+244.016+316.06+244.321+309.862+244.347C299.486+244.39+283.31+242.806+274.589+238.454C268.818+234.394+229.313+215.04+238.25+200.074C243.795+193.222+261.727+192.674+275.562+192.674C279.325+192.674+283.005+192.888+286.602+193.315C290.199+193.742+293.851+194.383+297.559+195.237C298.444+194.52+299.44+194.004+300.547+193.687C301.654+193.37+302.982+193.211+304.532+193.211C307.132+193.211+308.696+193.597+309.221+194.369C309.747+195.14+309.401+196.918+308.184+199.701L305.86+205.324C305.251+206.674+304.366+207.618+303.203+208.155C302.041+208.693+302.659+208.961+300.335+208.961C297.457+208.961+293.381+208.079+292.828+206.316C292.662+205.792+292.495+205.392+292.329+205.117C291.167+202.94+288.94+201.259+285.647+200.074C282.355+198.888+278.246+198.296+273.321+198.296C263.415+198.296+258.67+198.811+251.227+202.38C250.315+208.524+256.917+213.674+262.926+218.097C268.648+222.145+277.917+228.406+285.26+233.02C293.535+237.983+302.835+238.56+313.681+238.56C316.835+238.56+320.169+238.353+323.683+237.94C327.197+237.526+331.14+236.865+335.512+235.955Z" fill="#000000" stroke-linecap="round" opacity="1" stroke-linejoin="round"/>
</g>
<g id="Layer 2 copy" vectornator:layerName="Layer 2 copy" visibility="hidden">
<path stroke="#000000" stroke-width="1" d="M56.3534+237.277C57.3489+237.347+62.3106+237.4+63.275+237.435C64.2393+237.47+65.1881+237.488+66.1214+237.488C73.774+237.488+75.7649+236.199+80.0578+233.62C84.3508+231.042+82.7347+228.045+82.1939+222.421C81.1737+216.822+72.6274+212.417+63.9954+209.109C57.7167+206.911+46.0999+205.15+38.2296+205.15C36.7675+205.15+35.6554+205.162+34.8932+205.185C34.1311+205.208+33.4078+205.255+32.7234+205.326L56.3534+237.277ZM53.6729+242.234L46.3003+242.234L44.2005+242.234C43.0495+242.234+42.2407+242.023+41.7741+241.601C41.3074+241.179+41.1986+240.546+41.4474+239.702C41.6963+238.788+42.2018+238.156+42.964+237.804C43.7261+237.452+45.0404+237.277+46.9069+237.277L47.7468+237.277L23.524+205.601L22.7774+205.601C20.9109+205.601+19.6821+205.413+19.091+205.038C18.5+204.663+18.3289+204.007+18.5778+203.07C18.8266+202.202+19.301+201.564+20.001+201.154C20.7009+200.743+21.6575+200.538+22.8707+200.538L24.8772+200.538L32.2498+200.538L42.5621+200.538C50.3081+200.538+66.9564+203.342+72.8013+206.911C76.8397+208.632+84.2608+212.343+87.2853+219.421C89.2221+225.183+89.9446+225.536+89.5121+230.105C89.22+233.19+87.5082+235.12+84.3974+237.136C81.5666+238.964+78.3624+240.294+74.785+241.126C71.2076+241.958+65.4629+242.374+60.2057+242.374C59.5835+242.374+58.5414+242.351+57.0793+242.304C55.6172+242.257+54.4818+242.234+53.6729+242.234Z" fill="#000000" stroke-linecap="round" opacity="1" stroke-linejoin="round"/>
<path stroke="#000000" stroke-width="1" d="M142.673+235.483L131.78+228.115L120.208+228.115C119.275+228.115+118.629+227.928+118.272+227.553C117.914+227.178+117.844+226.604+118.062+225.83C118.342+224.94+118.723+224.33+119.205+224.002C119.687+223.674+120.504+223.51+121.655+223.51L141.813+223.51C142.622+223.51+143.166+223.703+143.446+224.09C143.726+224.477+143.757+225.057+143.539+225.83C143.321+226.697+142.909+227.295+142.303+227.623C141.696+227.951+140.739+228.115+139.433+228.115L138.826+228.115L149.346+236.854L149.113+237.697C148.926+238.33+148.701+238.77+148.436+239.016C148.172+239.262+147.728+239.502+147.106+239.736C145.115+240.533+142.347+241.213+138.8+241.776C135.254+242.338+131.739+242.597+128.255+242.619C122.422+242.656+113.328+241.309+108.426+237.608C105.181+234.155+82.974+217.695+87.9982+204.967C91.1153+199.14+101.196+198.674+108.973+198.674C111.088+198.674+113.157+198.856+115.179+199.219C117.201+199.582+119.254+200.127+121.338+200.854C121.836+200.244+122.396+199.805+123.018+199.535C123.64+199.266+124.387+199.131+125.258+199.131C126.72+199.131+127.599+199.459+127.894+200.115C128.19+200.772+127.995+202.283+127.311+204.651L126.005+209.432C125.662+210.58+125.165+211.383+124.511+211.84C123.858+212.297+124.205+212.526+122.899+212.526C121.281+212.526+118.99+211.776+118.679+210.276C118.585+209.83+118.492+209.49+118.399+209.256C117.745+207.404+116.493+205.975+114.642+204.967C112.791+203.959+110.482+203.455+107.713+203.455C102.145+203.455+99.477+203.893+95.293+206.929C94.7803+212.154+98.4915+216.533+101.87+220.295C105.086+223.738+110.297+229.062+114.425+232.986C119.077+237.207+124.304+237.697+130.401+237.697C132.174+237.697+134.049+237.522+136.024+237.17C137.999+236.818+140.216+236.256+142.673+235.483Z" fill="#000000" stroke-linecap="round" opacity="1" stroke-linejoin="round"/>
<path stroke="#000000" stroke-width="1" d="M200.165+235.483L189.272+228.115L177.699+228.115C176.766+228.115+176.121+227.928+175.763+227.553C175.405+227.178+175.335+226.604+175.553+225.83C175.833+224.94+176.214+224.33+176.696+224.002C177.178+223.674+177.995+223.51+179.146+223.51L199.304+223.51C200.113+223.51+200.657+223.703+200.937+224.09C201.217+224.477+201.248+225.057+201.031+225.83C200.813+226.697+200.401+227.295+199.794+227.623C199.187+227.951+198.231+228.115+196.924+228.115L196.318+228.115L206.837+236.854L206.604+237.697C206.417+238.33+206.192+238.77+205.927+239.016C205.663+239.262+205.22+239.502+204.598+239.736C202.607+240.533+199.838+241.213+196.292+241.776C192.745+242.338+189.23+242.597+185.746+242.619C179.913+242.656+170.819+241.309+165.917+237.608C162.673+234.155+140.465+217.695+145.49+204.967C148.607+199.14+158.687+198.674+166.464+198.674C168.58+198.674+170.648+198.856+172.67+199.219C174.692+199.582+176.745+200.127+178.83+200.854C179.327+200.244+179.887+199.805+180.51+199.535C181.132+199.266+181.878+199.131+182.749+199.131C184.211+199.131+185.09+199.459+185.386+200.115C185.681+200.772+185.487+202.283+184.802+204.651L183.496+209.432C183.154+210.58+182.656+211.383+182.003+211.84C181.349+212.297+181.697+212.526+180.39+212.526C178.773+212.526+176.481+211.776+176.17+210.276C176.077+209.83+175.983+209.49+175.89+209.256C175.237+207.404+173.985+205.975+172.134+204.967C170.283+203.959+167.973+203.455+165.204+203.455C159.636+203.455+156.968+203.893+152.784+206.929C152.272+212.154+155.983+216.533+159.361+220.295C162.577+223.738+167.788+229.062+171.916+232.986C176.568+237.207+181.795+237.697+187.893+237.697C189.666+237.697+191.54+237.522+193.515+237.17C195.491+236.818+197.707+236.256+200.165+235.483Z" fill="#000000" stroke-linecap="round" opacity="1" stroke-linejoin="round"/>
</g>
<g id="Layer 3" vectornator:layerName="Layer 3" visibility="hidden">
<g opacity="1">
<path d="M133.398+273.568C134.148+273.638+134.886+273.691+135.613+273.726C136.339+273.761+137.054+273.779+137.757+273.779C143.523+273.779+148.023+272.49+151.257+269.912C154.492+267.333+156.695+263.267+157.867+257.712C159.062+252.134+158.582+248.074+156.425+245.531C154.269+242.988+150.226+241.716+144.296+241.716C143.195+241.716+142.357+241.728+141.783+241.751C141.209+241.775+140.664+241.822+140.148+241.892L133.398+273.568ZM132.379+278.525L126.824+278.525L125.242+278.525C124.375+278.525+123.765+278.314+123.414+277.892C123.062+277.47+122.98+276.837+123.168+275.994C123.355+275.079+123.736+274.447+124.31+274.095C124.884+273.744+125.875+273.568+127.281+273.568L127.914+273.568L134.664+241.892L134.101+241.892C132.695+241.892+131.769+241.704+131.324+241.329C130.879+240.954+130.75+240.298+130.937+239.361C131.125+238.494+131.482+237.855+132.009+237.445C132.537+237.035+133.257+236.829+134.171+236.829L135.683+236.829L141.238+236.829L149.007+236.829C154.843+236.829+159.091+238.71+161.752+242.472C164.412+246.234+165.062+251.314+163.703+257.712C163.046+260.829+161.939+263.724+160.38+266.396C158.822+269.068+156.871+271.412+154.527+273.427C152.394+275.255+149.98+276.585+147.285+277.417C144.589+278.249+141.261+278.665+137.3+278.665C136.832+278.665+136.046+278.642+134.945+278.595C133.843+278.548+132.988+278.525+132.379+278.525Z" opacity="1" fill="#000000"/>
<path d="M196.433+272.478L198.226+264.111L189.507+264.111C188.804+264.111+188.318+263.923+188.048+263.548C187.779+263.173+187.726+262.599+187.89+261.826C188.101+260.935+188.388+260.326+188.752+259.997C189.115+259.669+189.73+259.505+190.597+259.505L205.785+259.505C206.394+259.505+206.804+259.699+207.015+260.085C207.226+260.472+207.25+261.052+207.086+261.826C206.921+262.693+206.611+263.29+206.154+263.619C205.697+263.947+204.976+264.111+203.992+264.111L203.535+264.111L201.461+273.849L201.285+274.693C201.144+275.326+200.974+275.765+200.775+276.011C200.576+276.257+200.242+276.497+199.773+276.732C198.273+277.529+196.187+278.208+193.515+278.771C190.843+279.333+188.195+279.615+185.57+279.615C179.289+279.615+174.642+277.611+171.63+273.603C168.619+269.595+167.793+264.369+169.152+257.923C170.535+251.478+173.564+246.158+178.24+241.962C182.916+237.767+188.183+235.669+194.043+235.669C195.636+235.669+197.195+235.851+198.718+236.214C200.242+236.578+201.789+237.122+203.359+237.849C203.734+237.24+204.156+236.8+204.625+236.531C205.093+236.261+205.656+236.126+206.312+236.126C207.414+236.126+208.076+236.454+208.298+237.111C208.521+237.767+208.375+239.279+207.859+241.646L206.875+246.427C206.617+247.576+206.242+248.378+205.75+248.835C205.257+249.292+204.519+249.521+203.535+249.521C202.316+249.521+201.589+248.771+201.355+247.271C201.285+246.826+201.214+246.486+201.144+246.251C200.652+244.4+199.709+242.97+198.314+241.962C196.92+240.954+195.179+240.451+193.093+240.451C188.898+240.451+185.224+241.968+182.072+245.003C178.92+248.038+176.793+252.134+175.691+257.29C174.566+262.611+175.052+266.841+177.15+269.982C179.248+273.122+182.593+274.693+187.187+274.693C188.523+274.693+189.935+274.517+191.423+274.165C192.912+273.814+194.582+273.251+196.433+272.478Z" opacity="1" fill="#000000"/>
<path d="M239.64+272.478L241.433+264.111L232.714+264.111C232.011+264.111+231.525+263.923+231.255+263.548C230.986+263.173+230.933+262.599+231.097+261.826C231.308+260.935+231.595+260.326+231.959+259.997C232.322+259.669+232.937+259.505+233.804+259.505L248.992+259.505C249.601+259.505+250.011+259.699+250.222+260.085C250.433+260.472+250.457+261.052+250.293+261.826C250.129+262.693+249.818+263.29+249.361+263.619C248.904+263.947+248.183+264.111+247.199+264.111L246.742+264.111L244.668+273.849L244.492+274.693C244.351+275.326+244.181+275.765+243.982+276.011C243.783+276.257+243.449+276.497+242.98+276.732C241.48+277.529+239.394+278.208+236.722+278.771C234.05+279.333+231.402+279.615+228.777+279.615C222.496+279.615+217.849+277.611+214.838+273.603C211.826+269.595+211+264.369+212.359+257.923C213.742+251.478+216.771+246.158+221.447+241.962C226.123+237.767+231.39+235.669+237.25+235.669C238.843+235.669+240.402+235.851+241.925+236.214C243.449+236.578+244.996+237.122+246.566+237.849C246.941+237.24+247.363+236.8+247.832+236.531C248.3+236.261+248.863+236.126+249.519+236.126C250.621+236.126+251.283+236.454+251.505+237.111C251.728+237.767+251.582+239.279+251.066+241.646L250.082+246.427C249.824+247.576+249.449+248.378+248.957+248.835C248.464+249.292+247.726+249.521+246.742+249.521C245.523+249.521+244.796+248.771+244.562+247.271C244.492+246.826+244.421+246.486+244.351+246.251C243.859+244.4+242.916+242.97+241.521+241.962C240.127+240.954+238.386+240.451+236.3+240.451C232.105+240.451+228.431+241.968+225.279+245.003C222.127+248.038+220+252.134+218.898+257.29C217.773+262.611+218.259+266.841+220.357+269.982C222.455+273.122+225.8+274.693+230.394+274.693C231.73+274.693+233.142+274.517+234.63+274.165C236.119+273.814+237.789+273.251+239.64+272.478Z" opacity="1" fill="#000000"/>
</g>
</g>
</svg>
