<?xml version="1.0" encoding="UTF-8" standalone="no"?> <!-- Created with Vectornator for iOS (http://vectornator.io/) --><!DOCTYPE svg PUBLIC "-//W3C//DTD SVG 1.1//EN" "http://www.w3.org/Graphics/SVG/1.1/DTD/svg11.dtd">
<svg height="100%" style="fill-rule:evenodd;clip-rule:evenodd;stroke-linecap:round;stroke-linejoin:round;" xmlns:xlink="http://www.w3.org/1999/xlink" xmlns="http://www.w3.org/2000/svg" xml:space="preserve" width="100%" xmlns:vectornator="http://vectornator.io" version="1.1" viewBox="0 0 432 432">
<metadata>
<vectornator:setting key="DimensionsVisible" value="1"/>
<vectornator:setting key="PencilOnly" value="0"/>
<vectornator:setting key="SnapToPoints" value="0"/>
<vectornator:setting key="OutlineMode" value="0"/>
<vectornator:setting key="CMYKEnabledKey" value="0"/>
<vectornator:setting key="RulersVisible" value="1"/>
<vectornator:setting key="SnapToEdges" value="0"/>
<vectornator:setting key="GuidesVisible" value="1"/>
<vectornator:setting key="DisplayWhiteBackground" value="0"/>
<vectornator:setting key="doHistoryDisabled" value="0"/>
<vectornator:setting key="SnapToGuides" value="1"/>
<vectornator:setting key="TimeLapseWatermarkDisabled" value="0"/>
<vectornator:setting key="Units" value="Inches"/>
<vectornator:setting key="DynamicGuides" value="0"/>
<vectornator:setting key="IsolateActiveLayer" value="0"/>
<vectornator:setting key="SnapToGrid" value="0"/>
</metadata>
<defs/>
<g id="Layer 1" vectornator:layerName="Layer 1">
<path stroke="#000000" fill-rule="evenodd" stroke-width="4" d="M184.484+32.7113C181.3+28.0563+168.239+27.9923+142.542+28.3993C118.274+28.9843+85.2639+31.9833+32.8914+35.2883" fill="#000000" stroke-linecap="round" fill-opacity="0" opacity="1" stroke-linejoin="round"/>
<path stroke="#000000" fill-rule="evenodd" stroke-width="4" d="M188.741+25.4943C175.625+22.7333+181.372+22.3363+146.684+22.4563C115.832+23.7383+35.4572+28.8643+3.07464+28.1003" fill="#000000" stroke-linecap="round" fill-opacity="0" opacity="1" stroke-linejoin="round"/>
<path stroke="#000000" fill-rule="evenodd" stroke-width="4" d="M183.555+14.5753C175.218+17.4893+172.263+17.6793+156.717+17.5273C123.736+17.0683+79.8782+17.8023+56.6939+17.2663" fill="#000000" stroke-linecap="round" fill-opacity="0" opacity="1" stroke-linejoin="round"/>
<path stroke="#000000" fill-rule="evenodd" stroke-width="6" d="M204.279+31.5683C257.721+24.8185+289.869+26.8705+333.458+30.7373C335.135+25.9782+338.597+23.6003+330.935+15.9933C296.635+11.6073+288.825+4.08027+272.32+4.47227C250.758+4.58526+243.61+11.9703+202.95+15.1283C199.752+22.7831+200.785+26.4356+204.279+31.5683Z" fill="#5c78fe" stroke-linecap="square" opacity="1" stroke-linejoin="round"/>
<path stroke="#000000" fill-rule="evenodd" stroke-width="3" d="M69.1571+86.9423C70.9279+87.0253+79.7544+87.0873+81.4698+87.1283C83.1853+87.1693+84.8731+87.1903+86.5333+87.1903C100.147+87.1903+103.688+85.6743+111.325+82.6433C118.962+79.6113+116.087+76.0873+115.125+69.4743C113.31+62.8913+98.1066+57.7113+82.7514+53.8203C71.5822+51.2373+50.9172+49.1663+36.9166+49.1663C34.3158+49.1663+32.3374+49.1793+30.9816+49.2073C29.6258+49.2353+28.3392+49.2903+27.1218+49.3723L69.1571+86.9423ZM64.3888+92.7713L51.2737+92.7713L47.5383+92.7713C45.4908+92.7713+44.052+92.5233+43.222+92.0273C42.3919+91.5303+42.1982+90.7863+42.6409+89.7943C43.0836+88.7193+43.9829+87.9753+45.3386+87.5623C46.6944+87.1493+49.0325+86.9423+52.3528+86.9423L53.8469+86.9423L10.7569+49.6963L9.42885+49.6963C6.10854+49.6963+3.92274+49.4753+2.87125+49.0353C1.81985+48.5943+1.51554+47.8223+1.95825+46.7203C2.40094+45.7003+3.24485+44.9493+4.48995+44.4673C5.73505+43.9843+7.43664+43.7433+9.59485+43.7433L13.1641+43.7433L26.2793+43.7433L44.6239+43.7433C58.4031+43.7433+88.0186+47.0403+98.4156+51.2363C105.601+53.2603+118.802+57.6233+124.182+65.9473C127.627+72.7213+128.913+73.1373+128.143+78.5093C127.624+82.1373+124.579+84.4063+119.045+86.7773C114.009+88.9263+108.309+90.4903+101.945+91.4683C95.5806+92.4473+85.362+92.9363+76.0098+92.9363C74.903+92.9363+73.0492+92.9083+70.4483+92.8533C67.8474+92.7983+65.8276+92.7713+64.3888+92.7713Z" fill="#000000" stroke-linecap="round" opacity="1" stroke-linejoin="round"/>
<path stroke="#000000" fill-rule="evenodd" stroke-width="3" d="M222.712+84.8323L203.334+76.1703L182.748+76.1703C181.088+76.1703+179.94+75.9493+179.303+75.5083C178.667+75.0673+178.543+74.3923+178.93+73.4833C179.428+72.4353+180.106+71.7193+180.964+71.3333C181.821+70.9473+183.274+70.7543+185.321+70.7543L221.181+70.7543C222.619+70.7543+223.588+70.9823+224.086+71.4363C224.584+71.8913+224.639+72.5733+224.252+73.4833C223.864+74.5023+223.131+75.2053+222.052+75.5913C220.973+75.9773+219.271+76.1703+216.947+76.1703L215.868+76.1703L234.582+86.4443L234.167+87.4373C233.835+88.1813+233.433+88.6973+232.963+88.9873C232.493+89.2763+231.704+89.5593+230.597+89.8343C227.056+90.7713+222.131+91.5703+215.822+92.2323C209.513+92.8933+203.26+93.1983+197.062+93.2243C186.686+93.2673+170.51+91.6833+161.789+87.3313C156.017+83.2713+116.513+63.9173+125.45+48.9513C130.995+42.0993+148.927+41.5513+162.762+41.5513C166.525+41.5513+170.205+41.7653+173.802+42.1923C177.399+42.6193+181.051+43.2603+184.759+44.1143C185.644+43.3973+186.64+42.8813+187.747+42.5643C188.854+42.2473+190.182+42.0883+191.731+42.0883C194.332+42.0883+195.896+42.4743+196.421+43.2463C196.947+44.0173+196.601+45.7953+195.384+48.5783L193.06+54.2013C192.451+55.5513+191.565+56.4953+190.403+57.0323C189.241+57.5703+189.859+57.8383+187.535+57.8383C184.657+57.8383+180.581+56.9563+180.027+55.1933C179.861+54.6693+179.695+54.2693+179.529+53.9943C178.367+51.8173+176.14+50.1363+172.847+48.9513C169.555+47.7653+165.446+47.1733+160.521+47.1733C150.615+47.1733+145.87+47.6883+138.427+51.2573C137.515+57.4013+144.117+62.5513+150.126+66.9743C155.848+71.0223+165.117+77.2833+172.46+81.8973C180.735+86.8603+190.034+87.4373+200.881+87.4373C204.035+87.4373+207.369+87.2303+210.883+86.8173C214.397+86.4033+218.34+85.7423+222.712+84.8323Z" fill="#000000" stroke-linecap="round" opacity="1" stroke-linejoin="round"/>
<path stroke="#000000" fill-rule="evenodd" stroke-width="3" d="M324.983+84.8323L305.605+76.1703L285.019+76.1703C283.359+76.1703+282.211+75.9493+281.575+75.5083C280.938+75.0673+280.814+74.3923+281.201+73.4833C281.699+72.4353+282.377+71.7193+283.235+71.3333C284.092+70.9473+285.545+70.7543+287.593+70.7543L323.452+70.7543C324.89+70.7543+325.859+70.9823+326.357+71.4363C326.855+71.8913+326.91+72.5733+326.523+73.4833C326.136+74.5023+325.402+75.2053+324.323+75.5913C323.244+75.9773+321.542+76.1703+319.218+76.1703L318.139+76.1703L336.853+86.4443L336.438+87.4373C336.106+88.1813+335.704+88.6973+335.234+88.9873C334.764+89.2763+333.975+89.5593+332.868+89.8343C329.327+90.7713+324.402+91.5703+318.093+92.2323C311.785+92.8933+305.531+93.1983+299.333+93.2243C288.957+93.2673+272.781+91.6833+264.06+87.3313C258.289+83.2713+218.784+63.9173+227.721+48.9513C233.266+42.0993+251.198+41.5513+265.033+41.5513C268.796+41.5513+272.476+41.7653+276.073+42.1923C279.67+42.6193+283.322+43.2603+287.03+44.1143C287.915+43.3973+288.911+42.8813+290.018+42.5643C291.125+42.2473+292.453+42.0883+294.003+42.0883C296.603+42.0883+298.167+42.4743+298.692+43.2463C299.218+44.0173+298.872+45.7953+297.655+48.5783L295.331+54.2013C294.722+55.5513+293.837+56.4953+292.674+57.0323C291.512+57.5703+292.13+57.8383+289.806+57.8383C286.928+57.8383+282.852+56.9563+282.299+55.1933C282.133+54.6693+281.966+54.2693+281.8+53.9943C280.638+51.8173+278.411+50.1363+275.118+48.9513C271.826+47.7653+267.717+47.1733+262.792+47.1733C252.886+47.1733+248.141+47.6883+240.698+51.2573C239.786+57.4013+246.388+62.5513+252.397+66.9743C258.119+71.0223+267.388+77.2833+274.731+81.8973C283.006+86.8603+292.306+87.4373+303.152+87.4373C306.306+87.4373+309.64+87.2303+313.154+86.8173C316.668+86.4033+320.611+85.7423+324.983+84.8323Z" fill="#000000" stroke-linecap="round" opacity="1" stroke-linejoin="round"/>
</g>
</svg>
